<mxfile host="app.diagrams.net" modified="2023-10-10T09:17:58.374Z" agent="Mozilla/5.0 (X11; Linux x86_64; rv:109.0) Gecko/20100101 Firefox/119.0" etag="OiyqugAZWcU6nbM7LkrS" version="22.0.4" type="device">
  <diagram name="Page-1" id="Q0CO8xxxiBB5L75LFNyr">
    <mxGraphModel dx="1434" dy="766" grid="1" gridSize="10" guides="1" tooltips="1" connect="1" arrows="1" fold="1" page="1" pageScale="1" pageWidth="450" pageHeight="280" math="0" shadow="0">
      <root>
        <mxCell id="0" />
        <mxCell id="1" parent="0" />
        <mxCell id="OycpriHIq8fUcRkjhXwn-3" value="" style="edgeStyle=orthogonalEdgeStyle;rounded=0;orthogonalLoop=1;jettySize=auto;html=1;" parent="1" source="OycpriHIq8fUcRkjhXwn-1" target="OycpriHIq8fUcRkjhXwn-2" edge="1">
          <mxGeometry relative="1" as="geometry">
            <Array as="points">
              <mxPoint x="90" y="40" />
              <mxPoint x="90" y="40" />
            </Array>
          </mxGeometry>
        </mxCell>
        <mxCell id="OycpriHIq8fUcRkjhXwn-16" value="Collecte" style="edgeLabel;html=1;align=center;verticalAlign=middle;resizable=0;points=[];" parent="OycpriHIq8fUcRkjhXwn-3" vertex="1" connectable="0">
          <mxGeometry x="0.01" y="-2" relative="1" as="geometry">
            <mxPoint x="-4" y="-8" as="offset" />
          </mxGeometry>
        </mxCell>
        <mxCell id="OycpriHIq8fUcRkjhXwn-10" value="" style="edgeStyle=orthogonalEdgeStyle;rounded=0;orthogonalLoop=1;jettySize=auto;html=1;" parent="1" source="OycpriHIq8fUcRkjhXwn-1" target="OycpriHIq8fUcRkjhXwn-5" edge="1">
          <mxGeometry relative="1" as="geometry">
            <Array as="points">
              <mxPoint x="330" y="50" />
              <mxPoint x="330" y="50" />
            </Array>
          </mxGeometry>
        </mxCell>
        <mxCell id="OycpriHIq8fUcRkjhXwn-20" value="Consulte" style="edgeLabel;html=1;align=center;verticalAlign=middle;resizable=0;points=[];" parent="OycpriHIq8fUcRkjhXwn-10" vertex="1" connectable="0">
          <mxGeometry x="0.1201" y="1" relative="1" as="geometry">
            <mxPoint x="-7" y="11" as="offset" />
          </mxGeometry>
        </mxCell>
        <mxCell id="OycpriHIq8fUcRkjhXwn-13" value="" style="edgeStyle=orthogonalEdgeStyle;rounded=0;orthogonalLoop=1;jettySize=auto;html=1;" parent="1" source="OycpriHIq8fUcRkjhXwn-1" target="OycpriHIq8fUcRkjhXwn-12" edge="1">
          <mxGeometry relative="1" as="geometry">
            <Array as="points">
              <mxPoint x="210" y="120" />
              <mxPoint x="210" y="120" />
            </Array>
          </mxGeometry>
        </mxCell>
        <mxCell id="OycpriHIq8fUcRkjhXwn-21" value="Feedback" style="edgeLabel;html=1;align=center;verticalAlign=middle;resizable=0;points=[];" parent="OycpriHIq8fUcRkjhXwn-13" vertex="1" connectable="0">
          <mxGeometry x="-0.0262" y="2" relative="1" as="geometry">
            <mxPoint x="-32" y="11" as="offset" />
          </mxGeometry>
        </mxCell>
        <mxCell id="OycpriHIq8fUcRkjhXwn-1" value="NutriGuardian.com" style="rounded=0;whiteSpace=wrap;html=1;" parent="1" vertex="1">
          <mxGeometry x="150" y="10" width="120" height="60" as="geometry" />
        </mxCell>
        <mxCell id="OycpriHIq8fUcRkjhXwn-4" value="" style="edgeStyle=orthogonalEdgeStyle;rounded=0;orthogonalLoop=1;jettySize=auto;html=1;" parent="1" source="OycpriHIq8fUcRkjhXwn-2" target="OycpriHIq8fUcRkjhXwn-1" edge="1">
          <mxGeometry relative="1" as="geometry">
            <Array as="points">
              <mxPoint x="90" y="50" />
              <mxPoint x="90" y="50" />
            </Array>
          </mxGeometry>
        </mxCell>
        <mxCell id="OycpriHIq8fUcRkjhXwn-17" value="Consulte" style="edgeLabel;html=1;align=center;verticalAlign=middle;resizable=0;points=[];" parent="OycpriHIq8fUcRkjhXwn-4" vertex="1" connectable="0">
          <mxGeometry x="0.0401" y="1" relative="1" as="geometry">
            <mxPoint x="-7" y="11" as="offset" />
          </mxGeometry>
        </mxCell>
        <mxCell id="OycpriHIq8fUcRkjhXwn-2" value="&lt;div&gt;Médecin&lt;/div&gt;" style="shape=umlActor;verticalLabelPosition=bottom;verticalAlign=top;html=1;outlineConnect=0;" parent="1" vertex="1">
          <mxGeometry x="10" y="10" width="30" height="60" as="geometry" />
        </mxCell>
        <mxCell id="OycpriHIq8fUcRkjhXwn-11" value="" style="edgeStyle=orthogonalEdgeStyle;rounded=0;orthogonalLoop=1;jettySize=auto;html=1;" parent="1" source="OycpriHIq8fUcRkjhXwn-5" target="OycpriHIq8fUcRkjhXwn-1" edge="1">
          <mxGeometry relative="1" as="geometry" />
        </mxCell>
        <mxCell id="OycpriHIq8fUcRkjhXwn-19" value="Rentre des données" style="edgeLabel;html=1;align=center;verticalAlign=middle;resizable=0;points=[];" parent="OycpriHIq8fUcRkjhXwn-11" vertex="1" connectable="0">
          <mxGeometry x="-0.1216" y="2" relative="1" as="geometry">
            <mxPoint x="-8" y="-12" as="offset" />
          </mxGeometry>
        </mxCell>
        <mxCell id="OycpriHIq8fUcRkjhXwn-5" value="Soignant(e)" style="shape=umlActor;verticalLabelPosition=bottom;verticalAlign=top;html=1;outlineConnect=0;" parent="1" vertex="1">
          <mxGeometry x="390" y="10" width="30" height="60" as="geometry" />
        </mxCell>
        <mxCell id="OycpriHIq8fUcRkjhXwn-14" value="" style="edgeStyle=orthogonalEdgeStyle;rounded=0;orthogonalLoop=1;jettySize=auto;html=1;" parent="1" source="OycpriHIq8fUcRkjhXwn-12" target="OycpriHIq8fUcRkjhXwn-1" edge="1">
          <mxGeometry relative="1" as="geometry">
            <Array as="points">
              <mxPoint x="220" y="140" />
              <mxPoint x="220" y="140" />
            </Array>
          </mxGeometry>
        </mxCell>
        <mxCell id="OycpriHIq8fUcRkjhXwn-22" value="Maintient" style="edgeLabel;html=1;align=center;verticalAlign=middle;resizable=0;points=[];" parent="OycpriHIq8fUcRkjhXwn-14" vertex="1" connectable="0">
          <mxGeometry x="-0.1669" y="-1" relative="1" as="geometry">
            <mxPoint x="29" as="offset" />
          </mxGeometry>
        </mxCell>
        <mxCell id="OycpriHIq8fUcRkjhXwn-12" value="Administrateur" style="shape=umlActor;verticalLabelPosition=bottom;verticalAlign=top;html=1;outlineConnect=0;" parent="1" vertex="1">
          <mxGeometry x="195" y="170" width="30" height="60" as="geometry" />
        </mxCell>
      </root>
    </mxGraphModel>
  </diagram>
</mxfile>
